<?xml version="1.0" standalone="no"?>
<!DOCTYPE svg PUBLIC "-//W3C//DTD SVG 20010904//EN"
 "http://www.w3.org/TR/2001/REC-SVG-20010904/DTD/svg10.dtd">
<svg version="1.0" xmlns="http://www.w3.org/2000/svg"
 width="512.000000pt" height="512.000000pt" viewBox="0 0 512.000000 512.000000"
 preserveAspectRatio="xMidYMid meet">

<g transform="translate(0.000000,512.000000) scale(0.100000,-0.100000)"
fill="#000000" stroke="none">
<path d="M1833 5094 c-25 -25 -25 -29 -20 -112 11 -188 98 -305 257 -345 l55
-14 6 -94 c10 -141 48 -228 137 -311 53 -49 111 -83 176 -102 l41 -12 0 -103
0 -102 -60 -21 c-75 -25 -156 -79 -199 -132 -39 -48 -81 -127 -91 -173 l-7
-33 -64 0 c-56 0 -68 -4 -89 -25 -30 -30 -32 -64 -4 -99 l20 -26 569 0 569 0
20 26 c28 35 26 69 -4 99 -21 21 -33 25 -88 25 l-65 0 -17 53 c-23 72 -55 124
-111 180 -48 48 -170 117 -205 117 -17 0 -19 9 -19 108 l0 108 50 13 c65 17
157 77 203 133 69 85 107 198 107 326 0 45 3 52 20 52 48 0 136 44 186 94 65
66 94 139 101 258 5 83 5 87 -20 112 l-26 26 -701 0 -701 0 -26 -26z m297
-219 c0 -108 -4 -112 -75 -72 -42 24 -78 78 -90 135 l-7 32 86 0 86 0 0 -95z
m718 -157 c-3 -213 -6 -259 -21 -291 -45 -102 -134 -166 -242 -175 -90 -7
-156 17 -220 82 -80 79 -85 104 -85 393 l0 243 286 0 286 0 -4 -252z m307 220
c-12 -57 -48 -111 -90 -135 -64 -36 -65 -34 -65 72 l0 95 81 0 81 0 -7 -32z
m-502 -1204 c75 -25 177 -131 177 -184 0 -7 -91 -10 -275 -10 l-275 0 11 28
c52 140 217 216 362 166z"/>
<path d="M932 3444 c-13 -8 -55 -79 -93 -157 -39 -78 -73 -144 -75 -146 -2 -3
-77 -15 -167 -28 -147 -21 -164 -25 -184 -48 -13 -15 -23 -36 -23 -47 0 -14
44 -66 124 -147 l125 -126 -24 -135 c-30 -164 -31 -212 -7 -232 40 -35 52 -32
210 49 l152 78 153 -78 c83 -43 157 -78 163 -77 6 0 23 9 38 21 33 26 33 50 2
234 l-24 140 125 127 c115 116 125 129 119 155 -14 54 -31 61 -204 86 -89 13
-164 25 -166 28 -2 2 -36 68 -75 146 -67 135 -96 173 -131 173 -9 0 -26 -7
-38 -16z m88 -335 c30 -60 54 -95 70 -104 14 -7 69 -18 123 -25 l99 -13 -81
-81 c-91 -92 -90 -88 -66 -225 8 -47 13 -86 11 -88 -1 -2 -49 20 -104 49
l-102 52 -101 -52 c-56 -29 -103 -51 -105 -49 -2 2 3 41 11 88 24 137 25 133
-66 225 l-81 81 94 12 c139 18 140 19 195 127 27 52 50 94 53 94 3 0 26 -41
50 -91z"/>
<path d="M1847 3075 c-48 -16 -83 -48 -108 -97 -18 -35 -19 -64 -19 -455 l0
-418 -688 0 c-667 0 -688 -1 -726 -20 -22 -11 -54 -37 -70 -58 l-31 -39 -3
-345 c-2 -313 -1 -347 14 -364 24 -27 85 -25 110 2 18 20 19 43 22 338 2 280
5 317 19 329 13 9 161 12 663 12 568 0 648 -2 668 -16 l22 -15 0 -890 0 -889
-685 0 -684 0 -3 421 -3 421 -24 19 c-28 23 -69 24 -99 3 l-22 -15 0 -425 0
-424 -73 0 c-60 0 -77 -4 -95 -20 -30 -28 -30 -82 0 -110 l22 -20 2506 0 2506
0 22 20 c30 28 30 82 0 110 -18 16 -35 20 -95 20 l-73 0 0 515 c0 456 -2 520
-16 548 -23 45 -44 66 -86 88 -35 18 -70 19 -733 19 l-695 0 0 808 c0 761 -1
809 -19 847 -22 50 -69 91 -119 105 -24 6 -274 10 -702 10 -537 -1 -672 -4
-703 -15z m1381 -147 c9 -9 12 -333 12 -1395 l0 -1383 -685 0 -685 0 0 1383
c0 1062 3 1386 12 1395 17 17 1329 17 1346 0z m1540 -2270 l2 -508 -685 0
-685 0 0 498 c0 376 3 501 12 510 9 9 169 12 683 10 l670 -3 3 -507z"/>
<path d="M4087 2699 c-10 -6 -51 -77 -92 -159 -58 -115 -80 -151 -97 -155 -13
-3 -85 -14 -161 -25 -145 -21 -171 -29 -181 -56 -19 -49 -7 -67 114 -189 l121
-121 -28 -166 c-25 -155 -26 -167 -11 -191 33 -49 57 -45 223 42 l153 79 28
-17 c16 -10 84 -46 151 -81 113 -57 125 -61 152 -51 53 22 55 46 24 227 l-28
163 123 118 c105 101 122 122 122 149 0 58 -28 71 -210 98 -98 15 -166 30
-169 37 -2 7 -35 74 -72 151 -53 107 -74 141 -95 148 -32 12 -44 12 -67 -1z
m146 -438 c13 -10 170 -40 216 -41 8 0 -22 -38 -67 -84 -45 -46 -82 -92 -82
-102 0 -11 7 -57 15 -104 8 -47 15 -90 15 -97 0 -7 -44 9 -104 39 l-105 50
-100 -51 c-55 -28 -102 -51 -104 -51 -2 0 4 46 14 103 24 126 21 136 -74 222
-39 36 -69 66 -66 68 2 3 51 11 108 20 58 9 110 22 117 29 7 7 34 56 60 108
l46 95 48 -96 c27 -52 55 -101 63 -108z"/>
</g>
</svg>
