<?xml version="1.0" standalone="no"?>
<!DOCTYPE svg PUBLIC "-//W3C//DTD SVG 20010904//EN"
 "http://www.w3.org/TR/2001/REC-SVG-20010904/DTD/svg10.dtd">
<svg version="1.0" xmlns="http://www.w3.org/2000/svg"
 width="512.000000pt" height="512.000000pt" viewBox="0 0 512.000000 512.000000"
 preserveAspectRatio="xMidYMid meet">

<g transform="translate(0.000000,512.000000) scale(0.100000,-0.100000)"
fill="#000000" stroke="none">
<path d="M2463 5063 c-152 -176 -246 -349 -303 -556 -18 -65 -20 -84 -10 -107
15 -36 57 -55 93 -41 32 12 39 26 66 126 43 157 141 335 260 469 48 54 61 76
61 101 0 42 -27 65 -77 65 -36 0 -45 -5 -90 -57z"/>
<path d="M3236 5099 c-279 -68 -528 -276 -652 -545 -42 -89 -51 -133 -34 -163
25 -48 104 -47 128 2 5 12 26 58 46 101 117 255 348 430 628 476 35 5 82 10
104 10 56 0 94 30 94 74 0 55 -22 66 -136 65 -62 0 -129 -8 -178 -20z"/>
<path d="M3389 4740 c-131 -20 -260 -90 -350 -188 -89 -97 -101 -155 -38 -188
42 -21 77 -6 118 51 70 97 176 158 311 177 93 13 120 30 120 77 0 65 -52 88
-161 71z"/>
<path d="M1320 4203 c-27 -10 -65 -37 -96 -68 -108 -108 -111 -265 -8 -375 56
-60 116 -86 222 -94 91 -7 170 -32 222 -71 56 -42 113 -30 133 28 10 28 -12
211 -34 285 -75 243 -250 361 -439 295z m157 -144 c65 -24 121 -108 147 -219
8 -33 14 -60 13 -60 -1 0 -27 7 -57 15 -30 8 -89 17 -130 21 -84 7 -112 20
-140 67 -64 104 47 222 167 176z"/>
<path d="M2421 4205 c-309 -68 -536 -356 -530 -675 l2 -95 -349 -5 c-239 -3
-355 -9 -369 -17 -31 -18 -73 -65 -84 -96 -6 -16 -11 -66 -11 -113 0 -125 38
-188 131 -215 33 -10 38 -16 43 -48 3 -20 49 -412 102 -871 52 -459 100 -847
106 -862 6 -15 23 -32 41 -39 18 -7 33 -13 35 -14 1 -1 9 -73 17 -160 9 -86
20 -166 26 -177 25 -47 105 -42 127 8 11 22 6 124 -13 287 l-6 47 880 0 880 0
-5 -33 c-4 -29 -84 -943 -84 -960 0 -4 -355 -7 -789 -7 l-789 0 -6 42 c-3 24
-10 106 -17 183 -7 85 -16 149 -25 162 -29 46 -103 39 -125 -11 -9 -18 -6 -80
9 -251 18 -207 22 -229 43 -251 l22 -24 883 0 883 0 26 22 26 23 44 520 c51
589 51 585 70 585 8 0 26 10 40 23 25 21 27 30 70 395 30 256 41 380 35 397
-18 48 -82 60 -118 22 -19 -20 -25 -58 -57 -332 -20 -171 -38 -320 -41 -333
l-4 -22 -973 2 -972 3 -91 784 c-51 432 -95 806 -98 833 l-7 48 1170 0 1171 0
-5 -27 c-9 -53 -75 -635 -75 -663 0 -34 40 -70 77 -70 13 0 34 10 46 23 20 20
26 52 60 352 21 182 40 342 43 356 4 20 14 29 43 38 92 27 131 92 131 216 0
115 -38 186 -113 214 -18 7 -151 11 -366 11 l-338 0 5 79 c12 204 -88 429
-246 556 -74 60 -202 122 -288 140 -85 18 -208 18 -293 0z m324 -166 c171 -64
299 -207 340 -381 16 -67 19 -145 9 -197 l-6 -31 -518 0 -518 0 -6 23 c-10 36
-7 142 5 199 41 193 190 347 390 403 77 21 225 14 304 -16z m1160 -834 l0 -70
-1335 0 -1335 0 -3 59 c-2 32 -1 65 2 72 5 12 219 14 1338 12 l1333 -3 0 -70z"/>
<path d="M3609 4197 c-75 -31 -121 -69 -163 -131 -51 -76 -83 -184 -98 -319
-11 -112 -11 -118 9 -145 26 -35 76 -41 112 -14 71 52 170 82 276 82 85 0 194
80 233 169 9 21 16 65 16 106 0 56 -5 80 -27 121 -68 133 -219 188 -358 131z
m179 -147 c66 -41 78 -131 24 -191 -25 -28 -36 -31 -139 -45 -62 -8 -124 -19
-139 -24 -15 -6 -28 -9 -30 -7 -5 5 22 109 38 148 21 48 76 109 113 125 44 19
95 17 133 -6z"/>
</g>
</svg>
