<?xml version="1.0" standalone="no"?>
<!DOCTYPE svg PUBLIC "-//W3C//DTD SVG 20010904//EN"
 "http://www.w3.org/TR/2001/REC-SVG-20010904/DTD/svg10.dtd">
<svg version="1.0" xmlns="http://www.w3.org/2000/svg"
 width="512.000000pt" height="512.000000pt" viewBox="0 0 512.000000 512.000000"
 preserveAspectRatio="xMidYMid meet">

<g transform="translate(0.000000,512.000000) scale(0.100000,-0.100000)"
fill="#000000" stroke="none">
<path d="M2425 5104 c-227 -49 -421 -235 -479 -461 -21 -79 -21 -237 0 -316
62 -241 263 -425 510 -468 85 -15 209 -6 294 20 201 63 371 243 424 447 21 80
21 238 0 317 -84 326 -417 531 -749 461z m226 -144 c167 -32 319 -168 370
-331 26 -82 25 -206 -1 -290 -74 -240 -334 -386 -575 -324 -120 32 -232 112
-297 215 -92 144 -91 365 1 509 110 170 308 258 502 221z"/>
<path d="M1317 4094 c-91 -28 -167 -134 -167 -234 0 -48 29 -124 62 -164 46
-56 96 -75 198 -76 109 0 194 -19 299 -65 64 -28 91 -35 117 -30 75 14 122 88
103 160 -6 20 -43 75 -83 123 -216 257 -364 337 -529 286z m180 -164 c56 -32
156 -121 204 -181 l30 -39 -43 16 c-69 25 -184 44 -264 44 -60 0 -78 4 -94 20
-27 27 -34 63 -20 105 23 69 102 84 187 35z"/>
<path d="M3615 4093 c-98 -36 -211 -130 -341 -285 -40 -48 -77 -103 -83 -123
-19 -72 28 -146 103 -160 26 -5 53 2 117 30 105 46 190 65 299 65 104 0 158
23 207 87 91 122 53 303 -79 371 -64 33 -156 39 -223 15z m164 -159 c38 -32
49 -80 27 -122 -19 -37 -32 -42 -116 -42 -75 0 -190 -20 -258 -44 l-43 -16 30
39 c48 60 148 149 204 181 66 38 114 39 156 4z"/>
<path d="M1183 3352 c-93 -33 -151 -93 -178 -185 l-12 -42 -409 -5 -409 -5
-47 -28 c-197 -115 -154 -405 69 -462 l48 -12 211 -1119 c120 -638 218 -1134
228 -1152 27 -53 93 -109 152 -132 52 -19 76 -20 498 -20 l444 0 12 -30 c18
-43 98 -114 155 -136 47 -18 82 -19 615 -19 533 0 568 1 615 19 56 22 137 93
155 136 l12 29 457 3 c441 3 458 4 502 24 58 27 116 85 139 138 10 23 28 97
40 164 22 124 22 124 3 150 -14 18 -31 28 -54 30 -55 5 -73 -24 -98 -158 -22
-121 -38 -153 -88 -183 -28 -16 -64 -17 -445 -15 l-415 3 92 485 91 485 457 3
457 2 -5 -22 c-3 -13 -18 -90 -34 -173 -23 -125 -26 -155 -16 -180 23 -58 106
-60 129 -2 7 18 82 400 167 851 84 450 158 820 164 821 76 20 100 30 137 58
139 106 124 324 -29 414 l-48 28 -408 5 -408 5 -18 53 c-25 73 -67 121 -136
157 l-59 30 -1340 2 c-1267 2 -1344 2 -1393 -15z m2715 -146 c100 -52 106
-180 11 -228 -32 -17 -117 -18 -1349 -18 -1232 0 -1317 1 -1350 18 -45 22 -73
74 -66 125 5 42 25 70 71 98 29 18 82 19 1343 19 1108 0 1317 -2 1340 -14z
m-2850 -281 c38 -54 95 -92 165 -107 48 -11 66 -22 67 -40 0 -14 -1046 -10
-1075 4 -48 22 -68 88 -41 137 27 50 34 50 457 51 l395 0 32 -45z m3871 31
c66 -35 66 -137 0 -172 -23 -12 -118 -14 -554 -14 -289 0 -525 3 -525 8 1 18
19 29 68 40 66 15 134 61 169 113 l26 39 394 0 c321 0 399 -3 422 -14z m-1229
-160 c0 -13 -63 -360 -75 -413 l-5 -23 -765 0 -764 0 -21 -22 c-34 -37 -25
-90 21 -113 24 -13 138 -15 764 -15 404 0 735 -3 735 -6 0 -3 -38 -209 -85
-456 -47 -248 -85 -454 -85 -459 0 -5 -373 -9 -850 -9 -467 0 -850 4 -850 8 0
4 -38 211 -85 459 -47 248 -85 454 -85 457 0 3 49 6 109 6 123 0 163 10 180
46 16 35 14 47 -10 78 -20 26 -21 26 -165 26 -141 0 -144 0 -149 23 -12 53
-75 400 -75 413 0 12 166 14 1130 14 964 0 1130 -2 1130 -14z m-2380 -183 c0
-5 20 -114 45 -243 25 -129 45 -243 45 -252 0 -17 -28 -18 -453 -18 l-453 0
-47 253 c-26 138 -47 255 -47 260 0 4 205 7 455 7 250 0 455 -3 455 -7z m3407
-20 c-3 -16 -24 -133 -48 -260 l-43 -233 -453 0 c-425 0 -453 1 -453 18 0 9
20 123 45 252 25 129 45 238 45 243 0 4 205 7 456 7 l457 0 -6 -27z m-3240
-868 c23 -121 42 -228 43 -237 0 -17 -28 -18 -455 -18 -250 0 -455 4 -455 9 0
4 -18 104 -40 221 -22 117 -40 221 -40 232 0 18 16 18 452 16 l453 -3 42 -220z
m3113 206 c0 -10 -18 -114 -40 -231 -22 -117 -40 -217 -40 -221 0 -5 -205 -9
-455 -9 -351 0 -455 3 -455 12 0 15 79 438 85 456 3 9 103 12 455 12 432 0
450 -1 450 -19z m-2945 -1101 l91 -485 -414 -3 c-381 -2 -417 -1 -445 15 -59
35 -63 46 -147 493 -44 234 -82 435 -85 448 l-5 22 457 -2 457 -3 91 -485z
m1731 283 c-2 -10 -39 -202 -82 -428 -42 -226 -82 -424 -89 -441 -7 -17 -30
-44 -51 -60 l-37 -29 -557 0 -557 0 -37 29 c-21 16 -44 43 -51 60 -7 17 -47
215 -90 441 -42 226 -78 418 -81 428 -5 16 38 17 816 17 777 0 821 -1 816 -17z"/>
</g>
</svg>
